<svg width="54" height="78" viewBox="0 0 54 78" fill="none" xmlns="http://www.w3.org/2000/svg">
<path d="M49.9969 69.5149L48.4865 69.0721C47.8616 68.8891 47.1917 68.9366 46.5989 69.2061C46.0061 69.4755 45.5298 69.949 45.2568 70.5402L43.5059 74.3336C43.3517 74.6674 43.1313 74.9664 42.8581 75.2125C42.585 75.4586 42.2647 75.6467 41.9166 75.7653C41.5686 75.884 41.2001 75.9308 40.8335 75.9028C40.4669 75.8749 40.1097 75.7728 39.7837 75.6027L36.7919 74.0406C36.4508 73.8626 36.0757 73.7591 35.6916 73.7369C35.3074 73.7148 34.923 73.7745 34.5637 73.9122C34.2044 74.0498 33.8784 74.2623 33.6074 74.5354C33.3364 74.8086 33.1266 75.1362 32.9917 75.4966C32.7502 76.1405 32.2739 76.6691 31.6586 76.9763C31.0433 77.2836 30.3346 77.3466 29.6747 77.1527C22.1497 74.9302 16.2076 71.8644 11.6832 68.1899C3.56699 61.6109 0 53.0815 0 43.9406V24.205C0.000178189 17.7854 2.55049 11.6287 7.0899 7.08943C11.6293 2.55014 17.786 -2.473e-09 24.2056 0C30.6252 0 36.7818 2.55016 41.3211 7.08947C45.8605 11.6288 48.4106 17.7854 48.4106 24.205V43.9406C48.4106 51.8647 49.972 59.4495 53.1897 65.6953C53.4277 66.168 53.5223 66.7 53.4616 67.2258C53.401 67.7516 53.1878 68.2481 52.8484 68.6542C52.5089 69.0603 52.0581 69.3581 51.5514 69.5111C51.0447 69.664 50.5043 69.6653 49.9969 69.5149Z" fill="#E7E7E7"/>
<path d="M14.5039 32.1135C16.7303 32.1135 18.5352 29.6068 18.5352 26.5148C18.5352 23.4227 16.7303 20.916 14.5039 20.916C12.2775 20.916 10.4727 23.4227 10.4727 26.5148C10.4727 29.6068 12.2775 32.1135 14.5039 32.1135Z" fill="#5D5D5D"/>
<path d="M33.856 32.1135C36.0824 32.1135 37.8872 29.6068 37.8872 26.5148C37.8872 23.4227 36.0824 20.916 33.856 20.916C31.6296 20.916 29.8247 23.4227 29.8247 26.5148C29.8247 29.6068 31.6296 32.1135 33.856 32.1135Z" fill="#5D5D5D"/>
<path d="M5.63979 54.5728C5.39898 54.5726 5.16404 54.4985 4.96665 54.3606C4.76926 54.2227 4.61891 54.0275 4.53589 53.8015C3.40066 50.6394 2.83205 47.3019 2.85621 43.9424C2.85621 43.6305 2.98008 43.3315 3.20059 43.111C3.42109 42.8905 3.72015 42.7666 4.03199 42.7666C4.34382 42.7666 4.64289 42.8905 4.86339 43.111C5.08389 43.3315 5.20777 43.6305 5.20777 43.9424C5.18359 47.0258 5.70399 50.0894 6.74502 52.9919C6.80978 53.1696 6.83075 53.3604 6.80618 53.548C6.78161 53.7356 6.71221 53.9145 6.60385 54.0696C6.49549 54.2247 6.35137 54.3514 6.18367 54.4389C6.01598 54.5265 5.82898 54.5725 5.63979 54.5728Z" fill="#B0B0B0"/>
</svg>
