<svg width="204" height="204" viewBox="0 0 204 204" fill="none" xmlns="http://www.w3.org/2000/svg">
<g clip-path="url(#clip0_6910_4588)">
<path d="M40.8 20.4004H20.4V40.8004H40.8V20.4004Z" fill="#06D432"/>
<path d="M142.8 0V10.2H132.6V20.4H142.8V61.2H153V71.4H142.8V81.6H153H163.2V61.2H193.8V71.4H204V61.2V0H142.8ZM193.8 51H153V10.2H193.8V51Z" fill="#121212"/>
<path d="M183.6 20.4004H163.2V40.8004H183.6V20.4004Z" fill="#06D432"/>
<path d="M40.8 163.199H20.4V183.599H40.8V163.199Z" fill="#06D432"/>
<path d="M153 142.801H142.8V153.001H153V142.801Z" fill="#06D432"/>
<path d="M102 193.801H91.8V204.001H102V193.801Z" fill="#121212"/>
<path d="M112.2 153H102V163.2H112.2V153Z" fill="#121212"/>
<path d="M112.2 173.4H102V183.6H112.2V173.4Z" fill="#121212"/>
<path d="M204 122.4H193.8V132.6H204V122.4Z" fill="#121212"/>
<path d="M10.2 122.4H0V132.6H10.2V122.4Z" fill="#121212"/>
<path d="M10.2 71.4004H0V81.6004H10.2V71.4004Z" fill="#121212"/>
<path d="M112.2 10.1992V20.3992H91.8V30.5992H122.4V20.3992V10.1992H112.2Z" fill="#121212"/>
<path d="M193.8 81.5996V91.7996H173.4V102H142.8V91.7996H132.6V102H112.2V112.2H142.8V122.4H122.4H112.2V112.2H102V122.4H91.8V112.2H81.6V122.4H71.4V132.6H91.8V142.8H102V132.6H122.4V142.8H112.2V153H122.4V173.4H132.6V183.6H142.8V173.4H173.4V153H183.6V142.8H173.4V122.4H153V112.2H173.4V122.4H183.6V112.2H193.8V102H204V91.7996V81.5996H193.8ZM163.2 132.6V163.2H132.6V132.6H163.2Z" fill="#121212"/>
<path d="M132.6 61.1992H122.4V71.3992H112.2V81.5992V91.7992H122.4V81.5992H132.6V71.3992H142.8V61.1992H132.6Z" fill="#121212"/>
<path d="M132.6 193.801H112.2V204.001H132.6V193.801Z" fill="#121212"/>
<path d="M91.8 10.1992H81.6V20.3992H91.8V10.1992Z" fill="#121212"/>
<path d="M173.4 81.5996H163.2V91.7996H173.4V81.5996Z" fill="#121212"/>
<path d="M183.6 71.4004H173.4V81.6004H183.6V71.4004Z" fill="#121212"/>
<path d="M51 122.4H40.8V132.6H51V122.4Z" fill="#121212"/>
<path d="M61.2 193.8V153H71.4V142.8V132.6H61.2V142.8H30.6V132.6H20.4H10.2V142.8H0V204H61.2H81.6V193.8H61.2ZM51 193.8H10.2V153H51V193.8Z" fill="#121212"/>
<path d="M71.3999 61.1992H61.2V71.3992H71.3999V61.1992Z" fill="#121212"/>
<path d="M71.4 0H61.2H0V61.2H10.2V71.4H20.4V61.2H30.6V71.4H40.8V61.2H61.2V40.8H71.4V30.6H61.2V10.2H71.4H81.6V0H71.4ZM51 51H10.2V10.2H51V51Z" fill="#121212"/>
<path d="M132.6 30.5996H122.4V40.7996H132.6V30.5996Z" fill="#121212"/>
<path d="M112.2 0H102V10.2H112.2V0Z" fill="#121212"/>
<path d="M122.4 61.2008V51.0008H112.2V40.8008H102V51.0008H81.6V40.8008H71.4V51.0008V61.2008H81.6V81.6008H51V71.4008H40.8V81.6008H10.2V91.8008H30.6V102.001H0V112.201H30.6V122.401H40.8V112.201H51V122.401H61.2V112.201H81.6V102.001H71.4V91.8008H81.6H91.8V102.001H102H112.2V91.8008H102V81.6008H91.8V61.2008H122.4ZM61.2 102.001H40.8V91.8008H61.2V102.001Z" fill="#121212"/>
<path d="M91.8 163.201V153.001V142.801H81.6V153.001H71.4V163.201H81.6V173.401H71.4V183.601H91.8V173.401H102V163.201H91.8Z" fill="#121212"/>
<path d="M183.6 183.6V173.4H173.4V183.6H142.8V193.8H163.2V204H173.4V193.8H193.8V204H204V193.8V183.6H183.6Z" fill="#121212"/>
<path d="M193.8 142.801V153.001H183.6V163.201H204V153.001V142.801H193.8Z" fill="#121212"/>
</g>
<defs>
<clipPath id="clip0_6910_4588">
<rect width="204" height="204" fill="white"/>
</clipPath>
</defs>
</svg>
