<svg width="20" height="20" viewBox="0 0 20 20" fill="none" xmlns="http://www.w3.org/2000/svg">
<g clip-path="url(#clip0_6897_4547)">
<path d="M4.57497 12.7732C5.54528 12.7818 6.36364 12.8154 7.00739 12.8755C7.03655 12.8782 7.06387 12.8909 7.08457 12.9116C7.10527 12.9323 7.11805 12.9597 7.12067 12.9888C7.18083 13.6326 7.21443 14.4509 7.22302 15.4212C7.23161 16.3916 7.21247 17.2091 7.16482 17.8517C7.16302 17.8804 7.15092 17.9074 7.13075 17.9279C7.11058 17.9484 7.08369 17.9608 7.05505 17.963C6.42302 18.0111 5.61872 18.0255 4.66482 18.0021C3.71091 17.9787 2.907 17.922 2.26989 17.8427C2.2401 17.839 2.21239 17.8255 2.19116 17.8043C2.16993 17.783 2.1564 17.7553 2.15271 17.7255C2.07458 17.0904 2.01794 16.2849 1.99333 15.3306C1.96872 14.3763 1.98318 13.5728 2.03239 12.9404C2.0346 12.9117 2.04708 12.8849 2.06754 12.8647C2.08799 12.8445 2.11505 12.8324 2.14372 12.8306C2.7863 12.783 3.60427 12.7638 4.57419 12.7724M4.56325 10.7951C3.40896 10.7923 2.5656 10.8283 1.95114 10.8791C0.928879 10.965 0.121457 11.7486 0.0480194 12.7392C0.00466004 13.3376 -0.0183868 14.156 0.0179413 15.2767C0.0542694 16.3974 0.130441 17.2177 0.213254 17.8177C0.350754 18.8138 1.18552 19.6486 2.18161 19.7861C2.78161 19.8677 3.60193 19.9423 4.72263 19.9814C5.84333 20.0205 6.66169 19.9947 7.25778 19.9505C8.2488 19.8771 9.032 19.0697 9.11794 18.0474C9.16911 17.433 9.20466 16.5896 9.20193 15.4353C9.19919 14.281 9.157 13.4373 9.10153 12.8216C9.05718 12.3258 8.84004 11.8613 8.48804 11.5093C8.13604 11.1573 7.67157 10.9402 7.17575 10.8958C6.5613 10.8408 5.71755 10.8001 4.56364 10.7974L4.56325 10.7951Z" fill="#121212"/>
<path d="M4.66469 1.99727C5.6186 1.97266 6.42251 1.98711 7.05493 2.03633C7.0837 2.03856 7.11068 2.05115 7.13087 2.07177C7.15106 2.09238 7.16308 2.11963 7.16469 2.14844C7.21235 2.79102 7.2311 3.60899 7.2229 4.57891C7.21469 5.54883 7.18071 6.36758 7.12055 7.01133C7.11793 7.04049 7.10515 7.0678 7.08445 7.0885C7.06374 7.10921 7.03643 7.12198 7.00727 7.12461C6.36352 7.18477 5.54516 7.21836 4.57485 7.22696C3.60454 7.23555 2.78696 7.21602 2.14438 7.16875C2.11571 7.16695 2.08865 7.15485 2.06819 7.13468C2.04774 7.11451 2.03526 7.08763 2.03305 7.05899C1.98501 6.42657 1.97055 5.62266 1.99399 4.66875C2.01743 3.71485 2.07407 2.91094 2.15336 2.27383C2.15739 2.24436 2.17108 2.21706 2.19229 2.19621C2.21349 2.17535 2.24102 2.16213 2.27055 2.1586C2.90571 2.08047 3.71118 2.02344 4.66547 1.99922M4.72094 0.0199235C3.60063 0.0562516 2.77993 0.132033 2.18188 0.215236C1.18383 0.351564 0.349068 1.18594 0.211568 2.18203C0.130318 2.78203 0.0553176 3.60235 0.0162551 4.72305C-0.0228074 5.84375 0.00297382 6.66211 0.0471144 7.25821C0.121724 8.24883 0.929146 9.03242 1.95297 9.11836C2.56743 9.16914 3.41079 9.20508 4.56508 9.20235C5.71938 9.19961 6.56274 9.15899 7.17719 9.10391C7.67304 9.05963 8.13755 8.84251 8.48956 8.4905C8.84158 8.13849 9.05869 7.67397 9.10297 7.17813C9.15805 6.56367 9.19868 5.71992 9.20141 4.56602C9.20415 3.41211 9.16821 2.56836 9.11743 1.95391C9.03149 0.931642 8.24829 0.12422 7.25727 0.0507829C6.66001 0.00664224 5.84165 -0.0164046 4.72094 0.0199235Z" fill="#121212"/>
<path d="M3.26599 5.39678C3.27618 5.5404 3.33807 5.67546 3.4402 5.77694C3.54233 5.87843 3.67778 5.93946 3.82146 5.94874C4.00193 5.96163 4.25114 5.96983 4.58864 5.96553C4.92614 5.96124 5.17458 5.94678 5.35661 5.92881C5.503 5.91392 5.63977 5.84896 5.74381 5.74492C5.84786 5.64087 5.91281 5.50411 5.92771 5.35772C5.94568 5.17686 5.96013 4.92803 5.96443 4.58975C5.96872 4.25147 5.96052 4.00381 5.94763 3.82256C5.93835 3.67888 5.87732 3.54343 5.77584 3.4413C5.67435 3.33917 5.53929 3.27728 5.39568 3.26709C5.21677 3.25459 4.97146 3.24756 4.63513 3.25499C4.2988 3.26241 4.05271 3.27959 3.87341 3.29991C3.72712 3.31749 3.59096 3.38368 3.48677 3.48788C3.38258 3.59207 3.31639 3.72822 3.2988 3.87452C3.27849 4.0542 3.25974 4.29991 3.25388 4.63624C3.24802 4.97256 3.25349 5.21788 3.26599 5.39678Z" fill="#121212"/>
<path d="M3.29881 16.1254C3.31639 16.2717 3.38259 16.4079 3.48678 16.512C3.59097 16.6162 3.72712 16.6824 3.87342 16.7C4.05311 16.7203 4.2992 16.7391 4.63514 16.7449C4.97107 16.7508 5.21678 16.7449 5.39568 16.7328C5.5393 16.7226 5.67436 16.6607 5.77584 16.5586C5.87733 16.4565 5.93836 16.321 5.94764 16.1774C5.96053 15.9969 5.96873 15.7477 5.96443 15.4102C5.96014 15.0727 5.94568 14.8242 5.92771 14.6422C5.91282 14.4958 5.84787 14.359 5.74382 14.255C5.63977 14.151 5.50301 14.086 5.35662 14.0711C5.17576 14.0531 4.92693 14.0387 4.58865 14.0344C4.25037 14.0301 4.00271 14.0379 3.82146 14.0512C3.67779 14.0605 3.54234 14.1215 3.44021 14.223C3.33807 14.3245 3.27618 14.4595 3.266 14.6031C3.2535 14.782 3.24646 15.0274 3.25389 15.3637C3.26131 15.7 3.2785 15.9457 3.29881 16.1254Z" fill="#121212"/>
<path d="M12.1453 19.9238C11.6492 19.9305 11.2293 19.5426 11.1875 19.0254C11.1094 18.0684 11.0738 16.877 11.0789 15.4879C11.0789 15.3267 11.0799 15.1704 11.082 15.0191C11.0839 14.7558 11.1893 14.5037 11.3754 14.3174C11.5616 14.1311 11.8136 14.0255 12.077 14.0234H12.0844C12.2142 14.0234 12.3428 14.0493 12.4626 14.0996C12.5823 14.1498 12.6908 14.2235 12.7818 14.3162C12.8727 14.4089 12.9442 14.5188 12.9922 14.6395C13.0401 14.7602 13.0635 14.8893 13.0609 15.0191C13.0586 15.1664 13.0566 15.3184 13.0551 15.4742C13.0422 16.8023 13.0664 17.9313 13.1293 18.8273C13.1684 19.3742 12.7641 19.8637 12.2309 19.9211C12.2027 19.9219 12.1738 19.9219 12.1453 19.9238Z" fill="#121212"/>
<path d="M18.5766 16.9045H18.568C18.4416 16.9096 18.3156 16.8882 18.198 16.8419C18.0803 16.7955 17.9736 16.7251 17.8847 16.6352C17.7957 16.5453 17.7265 16.4379 17.6814 16.3197C17.6363 16.2016 17.6163 16.0754 17.6227 15.9491C17.6227 15.9241 17.6227 15.8987 17.6254 15.8737C17.6278 15.7955 17.6301 15.7174 17.6325 15.6373C17.643 15.3731 17.7535 15.1227 17.9418 14.937C18.13 14.7512 18.3818 14.644 18.6461 14.637H18.6481C19.195 14.6252 19.6266 15.0487 19.6078 15.5838C19.6047 15.6651 19.6017 15.745 19.5989 15.8237L19.5953 15.9053C19.5703 16.4381 19.1149 16.885 18.5766 16.9045Z" fill="#121212"/>
<path d="M18.5129 10.8028C18.1418 10.8028 17.8711 10.8181 17.6735 10.8356C17.5149 10.8493 17.3661 10.9179 17.2527 11.0296C17.1393 11.1412 17.0685 11.289 17.0524 11.4474C17.0336 11.6427 17.0192 11.9095 17.0161 12.2751C17.0129 12.6407 17.0219 12.9079 17.0368 13.1024C17.0484 13.2589 17.1163 13.4058 17.2279 13.5161C17.3395 13.6263 17.4872 13.6924 17.6438 13.702C17.8391 13.7161 18.1098 13.7235 18.4793 13.7169C18.8489 13.7102 19.1188 13.6923 19.3161 13.6712C19.4746 13.6548 19.623 13.5852 19.7369 13.4738C19.8509 13.3624 19.9238 13.2156 19.9438 13.0575C19.9649 12.8653 19.9829 12.602 19.9872 12.2415C19.9915 11.8809 19.9821 11.6165 19.9661 11.4266C19.9514 11.2703 19.8815 11.1243 19.769 11.0148C19.6565 10.9053 19.5087 10.8394 19.352 10.829C19.1547 10.8126 18.8832 10.8016 18.5129 10.8028Z" fill="#121212"/>
<path d="M18.2332 19.8049C17.6966 19.8336 17.1589 19.8336 16.6223 19.8049C15.3656 19.7291 14.3957 18.6401 14.3086 17.2373C14.3035 17.1498 14.2985 17.0721 14.2938 16.9991C14.2668 16.5979 14.2481 16.3076 14.2606 15.3924C14.2715 14.5612 14.2543 14.3323 14.2262 13.9526C14.2203 13.8744 14.2141 13.794 14.2078 13.7022C14.1774 13.267 13.9031 12.9151 13.5684 12.8791C13.475 12.8741 13.0863 12.8682 12.8262 12.8643C12.4508 12.858 12.2336 12.8541 12.134 12.8483C11.8703 12.8308 11.6243 12.7093 11.4502 12.5105C11.276 12.3117 11.188 12.0518 11.2055 11.7881C11.2229 11.5244 11.3444 11.2784 11.5433 11.1043C11.7421 10.9302 12.0019 10.8421 12.2656 10.8596C12.3317 10.8635 12.6449 10.8698 12.8735 10.8741C13.4621 10.8854 13.6621 10.8901 13.7664 10.9002C15.0719 11.0291 16.0977 12.1323 16.1883 13.5248C16.1942 13.6119 16.1996 13.6897 16.2051 13.7623C16.2332 14.1616 16.2539 14.4498 16.2363 15.3588C16.2195 16.1854 16.2324 16.4135 16.2551 16.7897C16.2598 16.8658 16.2645 16.9459 16.2692 17.0381C16.2918 17.4725 16.5574 17.8194 16.8887 17.8401C17.4918 17.8749 18.0965 17.8725 18.6992 17.8326C19.2399 17.7971 19.6711 18.1979 19.6567 18.7311C19.6422 19.2643 19.1934 19.735 18.6586 19.778C18.5156 19.7897 18.3711 19.7987 18.2332 19.8049Z" fill="#121212"/>
<path d="M15.3351 1.99727C16.2894 2.02149 17.0949 2.07539 17.7301 2.15664C17.7592 2.16057 17.7863 2.17398 17.8071 2.1948C17.828 2.21562 17.8414 2.2427 17.8453 2.27188C17.9234 2.90703 17.9804 3.7125 18.0047 4.6668C18.0289 5.6211 18.0148 6.42461 17.9656 7.05703C17.9634 7.08568 17.9509 7.11256 17.9305 7.13273C17.91 7.1529 17.8829 7.165 17.8543 7.1668C17.2117 7.21407 16.3937 7.2336 15.4238 7.225C14.4539 7.21641 13.6351 7.18281 12.9914 7.12266C12.9622 7.12003 12.9349 7.10725 12.9142 7.08655C12.8935 7.06585 12.8807 7.03854 12.8781 7.00938C12.8179 6.36563 12.7844 5.54727 12.7758 4.57696C12.7672 3.60664 12.7867 2.78906 12.834 2.14649C12.8358 2.11781 12.8479 2.09076 12.868 2.0703C12.8882 2.04984 12.9151 2.03736 12.9437 2.03516C13.5761 1.98711 14.3801 1.97266 15.334 1.9961M15.2789 0.0199235C14.1582 -0.0164046 13.3398 0.00664224 12.7437 0.0507829C11.7531 0.12422 10.9695 0.931642 10.8836 1.95313C10.8328 2.56758 10.7969 3.41094 10.7996 4.56524C10.8023 5.71953 10.8429 6.5625 10.8984 7.17813C10.9428 7.67394 11.1599 8.13842 11.5119 8.49041C11.8639 8.84241 12.3284 9.05955 12.8242 9.10391C13.4386 9.15899 14.2824 9.19961 15.4363 9.20235C16.5902 9.20508 17.434 9.16914 18.0484 9.11836C19.0707 9.03242 19.8781 8.24883 19.9515 7.25821C19.9957 6.66211 20.0187 5.84375 19.9824 4.72305C19.9461 3.60235 19.8703 2.78203 19.7871 2.18399C19.6508 1.18594 18.8156 0.351564 17.8199 0.213674C17.2199 0.132033 16.3992 0.0574235 15.2789 0.018361V0.0199235Z" fill="#121212"/>
<path d="M14.0723 5.35893C14.0872 5.50532 14.1521 5.64208 14.2562 5.74613C14.3602 5.85018 14.497 5.91513 14.6434 5.93003C14.8242 5.94799 15.0731 5.96245 15.4114 5.96674C15.7496 5.97104 15.9973 5.96284 16.1785 5.94995C16.3222 5.94067 16.4577 5.87964 16.5598 5.77816C16.6619 5.67667 16.7238 5.54161 16.734 5.39799C16.7465 5.21909 16.7535 4.97378 16.7461 4.63745C16.7387 4.30112 16.7215 4.05542 16.7012 3.87573C16.6836 3.72943 16.6174 3.59328 16.5132 3.48909C16.409 3.3849 16.2729 3.3187 16.1266 3.30112C15.9469 3.28081 15.7012 3.26206 15.3649 3.2562C15.0285 3.25034 14.7832 3.2562 14.6043 3.26831C14.4607 3.27849 14.3256 3.34039 14.2242 3.44252C14.1227 3.54465 14.0616 3.6801 14.0524 3.82378C14.0395 4.00424 14.0313 4.25346 14.0356 4.59096C14.0399 4.92846 14.0543 5.17807 14.0723 5.35893Z" fill="#121212"/>
</g>
<defs>
<clipPath id="clip0_6897_4547">
<rect width="20" height="20" fill="white"/>
</clipPath>
</defs>
</svg>
