<svg width="23" height="23" viewBox="0 0 23 23" fill="none" xmlns="http://www.w3.org/2000/svg">
<path d="M19.9063 6.16211C19.9063 7.73267 18.6331 9.00586 17.0625 9.00586C15.4919 9.00586 14.2188 7.73267 14.2188 6.16211C14.2188 4.59155 15.4919 3.31836 17.0625 3.31836C18.6331 3.31836 19.9063 4.59155 19.9063 6.16211Z" stroke="#FEFFFB" stroke-width="1.42188"/>
<path d="M8.53125 11.375C8.53125 12.9456 7.25806 14.2188 5.6875 14.2188C4.11694 14.2188 2.84375 12.9456 2.84375 11.375C2.84375 9.8044 4.11694 8.53125 5.6875 8.53125C7.25806 8.53125 8.53125 9.8044 8.53125 11.375Z" stroke="#FEFFFB" stroke-width="1.42188"/>
<path d="M19.9063 16.5879C19.9063 18.1585 18.6331 19.4316 17.0625 19.4316C15.4919 19.4316 14.2188 18.1585 14.2188 16.5879C14.2188 15.0173 15.4919 13.7441 17.0625 13.7441C18.6331 13.7441 19.9063 15.0173 19.9063 16.5879Z" stroke="#FEFFFB" stroke-width="1.42188"/>
<path d="M8.2738 10.189L14.4352 7.3457M8.2738 12.5592L14.4352 15.4025" stroke="#FEFFFB" stroke-width="1.42188"/>
</svg>
