<svg width="18" height="18" viewBox="0 0 18 18" fill="none" xmlns="http://www.w3.org/2000/svg">
<path fill-rule="evenodd" clip-rule="evenodd" d="M1.41865 16.5814C-0.472882 14.6898 -0.472882 11.6231 1.41865 9.73154L4.38767 6.76258C6.2792 4.871 9.34599 4.871 11.2375 6.76258L9.13816 8.86193C8.40601 8.12979 7.21917 8.12979 6.48702 8.86193L3.51802 11.8309C2.78594 12.563 2.78594 13.7499 3.51802 14.482C4.25009 15.214 5.43701 15.214 6.16905 14.482L6.76284 13.8882C7.34268 13.3084 8.28251 13.3084 8.8622 13.8882C9.44203 14.4679 9.44203 15.4077 8.8622 15.9876L8.2684 16.5814C6.37688 18.4729 3.31017 18.4729 1.41865 16.5814ZM16.5814 8.26844C18.4729 6.37692 18.4729 3.31015 16.5814 1.41863C14.6898 -0.472876 11.623 -0.472876 9.73151 1.41863L9.13772 2.01244C8.55803 2.59217 8.55803 3.53208 9.13772 4.11181C9.71741 4.69153 10.6574 4.69153 11.2371 4.11181L11.8309 3.51801C12.563 2.78594 13.7499 2.78594 14.482 3.51801C15.214 4.25008 15.214 5.43699 14.482 6.16909L11.5129 9.13804C10.7809 9.87019 9.5939 9.87019 8.8619 9.13804L6.76254 11.2374C8.65407 13.1289 11.7209 13.1289 13.6124 11.2374L16.5814 8.26844Z" fill="#121212"/>
</svg>
