<svg width="149" height="33" viewBox="0 0 149 33" fill="none" xmlns="http://www.w3.org/2000/svg">
<g clip-path="url(#clip0_6910_4684)">
<path d="M14.6719 5.41971V0H21.469L23.6063 16.8637L29.3989 0H36.5736L26.2244 25.2631L18.4833 25.2582C17.6273 21.6042 17.5745 17.8104 16.8973 14.1298C16.8369 13.807 16.8218 12.6099 16.3107 12.764L10.5281 25.3088L3.37105 25.2655L0.0706787 0H7.87476L8.88425 16.8589C9.47585 16.9842 9.28956 16.7818 9.44816 16.5482" fill="#06D432"/>
<path d="M77.6081 33.0005L82.2478 2.87416C82.4215 2.62847 82.7387 2.66942 83.008 2.6381C83.718 2.5538 88.3198 2.53694 88.7755 2.68146C89.6188 2.95365 89.0751 4.7 89.8202 4.57956C90.2986 4.50248 91.9148 3.16321 93.0199 2.82117C106.969 -1.49533 105.328 19.6632 97.073 24.5241C94.4473 26.0705 91.235 26.3451 88.5086 24.8541C87.907 24.5241 87.6099 23.8834 86.9227 23.8448C86.545 24.8493 85.9308 32.9981 85.2838 32.9981H77.6056L77.6081 33.0005ZM94.1528 8.50102C92.6498 7.31591 90.2281 8.80935 89.4703 10.2666C88.8107 11.5385 87.7182 17.0425 87.7408 18.4853C87.7484 18.9165 88.3551 19.3958 88.7528 19.5669C94.6386 22.1153 96.2876 10.1847 94.1528 8.50102Z" fill="#06D432"/>
<path d="M124.933 18.3088C124.468 19.8167 124.581 22.7265 124.015 24.0345C123.448 25.3424 116.233 26.1156 114.73 26.0241C102.067 25.2533 103.495 8.64731 112.369 3.75271C116.213 1.63301 123.609 1.04527 126.242 5.13293C129.696 10.49 123.748 14.8932 118.693 15.8278C117.535 16.0422 115.196 15.9603 114.524 16.1747C114.045 16.3264 114.088 16.813 114.088 17.2249C114.088 20.5707 119.34 19.9323 121.608 19.3398C122.781 19.0339 123.753 18.3016 124.933 18.3113V18.3088ZM114.111 12.0437C115.964 12.1882 119.934 11.4993 120.296 9.41089C120.757 6.75403 117.321 6.89614 115.813 8.18724C115.297 8.62804 113.69 11.6438 114.108 12.0437H114.111Z" fill="#06D432"/>
<path d="M54.445 18.3058C54.6489 18.5202 53.73 23.5714 53.5261 24.0315C53.0226 25.166 46.5704 26.0476 45.2563 26.0307C31.715 25.8453 33.2305 7.27613 43.3758 3.25592C47.225 1.73117 53.6369 1.40599 55.9655 5.41175C59.1702 10.923 52.9094 14.9239 47.9525 15.8272C47.1595 15.9718 43.8868 16.1524 43.7333 16.3644C43.2499 17.0244 43.9447 18.4961 44.491 19.0405C46.6309 21.1699 52.0031 19.4307 54.445 18.3083V18.3058ZM43.8742 12.0407C45.7221 12.1322 49.4529 11.5396 49.8683 9.45124C50.1553 8.01081 49.171 7.3773 47.7864 7.45679C45.3872 7.59168 44.1235 10.0149 43.8768 12.0407H43.8742Z" fill="#06D432"/>
<path d="M67.9636 17.8997C67.0548 17.1217 64.127 16.3605 62.7751 15.5151C57.8686 12.4463 58.8479 5.25375 64.0917 3.08346C66.7552 1.98025 71.2665 1.81886 74.0331 2.57521C74.9394 2.82331 78.3002 4.29507 78.0736 5.35733C77.9452 5.95711 74.4435 9.69309 73.9903 9.61601C73.0488 8.00215 67.2511 6.51112 67.2612 9.03069C67.2662 10.5747 71.5232 11.5213 72.9003 12.3307C76.5606 14.4769 77.2026 18.6513 75.1861 22.1319C72.5604 26.6604 63.6361 26.9422 59.3992 24.5238C58.8756 24.2251 56.9548 22.816 56.9523 22.2789C56.9523 22.0308 59.9883 18.7356 60.3458 18.5332C61.5466 17.8492 61.7858 18.9403 62.6895 19.4486C63.8929 20.1254 67.6967 21.0432 68.4192 19.5016C68.6735 18.9572 68.3966 18.2707 67.9611 17.8973L67.9636 17.8997Z" fill="#06D432"/>
<path d="M146.734 18.3088C146.269 19.8167 146.382 22.7265 145.816 24.0345C145.249 25.3424 138.034 26.1156 136.531 26.0241C123.869 25.2533 125.296 8.64731 134.17 3.75271C138.014 1.63301 145.41 1.04527 148.044 5.13293C151.497 10.49 145.549 14.8932 140.494 15.8278C139.336 16.0422 136.997 15.9603 136.325 16.1747C135.847 16.3264 135.889 16.813 135.889 17.2249C135.889 20.5707 141.141 19.9323 143.409 19.3398C144.582 19.0339 145.554 18.3016 146.734 18.3113V18.3088ZM135.912 12.0437C137.765 12.1882 141.735 11.4993 142.097 9.41089C142.558 6.75403 139.122 6.89614 137.614 8.18724C137.098 8.62804 135.492 11.6438 135.909 12.0437H135.912Z" fill="#06D432"/>
</g>
<defs>
<clipPath id="clip0_6910_4684">
<rect width="149" height="33" fill="white"/>
</clipPath>
</defs>
</svg>
