<svg width="110" height="25" viewBox="0 0 110 25" fill="none" xmlns="http://www.w3.org/2000/svg">
<g clip-path="url(#clip0_6910_4696)">
<path d="M10.8315 4.10584V0H15.8495L17.4274 12.7755L21.7038 0H27.0006L19.3602 19.1387L13.6453 19.135C13.0134 16.3668 12.9744 13.4927 12.4744 10.7044C12.4298 10.4599 12.4187 9.55292 12.0414 9.66971L7.7724 19.1734L2.48864 19.1405L0.052124 0H5.81352L6.55879 12.7719C6.99554 12.8668 6.85801 12.7135 6.9751 12.5365" fill="#6D6D6D"/>
<path d="M57.2945 24.9995L60.7198 2.17651C60.848 1.99038 61.0822 2.0214 61.281 1.99768C61.8051 1.93381 65.2025 1.92103 65.5389 2.03052C66.1615 2.23673 65.7601 3.55972 66.3102 3.46848C66.6633 3.41008 67.8565 2.39549 68.6724 2.13636C78.9704 -1.13371 77.7586 14.8955 71.6646 18.578C69.7261 19.7495 67.3547 19.9575 65.3419 18.828C64.8977 18.578 64.6784 18.0926 64.171 18.0634C63.8923 18.8243 63.4388 24.9977 62.9611 24.9977H57.2927L57.2945 24.9995ZM69.5087 6.43928C68.3992 5.54147 66.6113 6.67286 66.0519 7.77687C65.5649 8.74038 64.7583 12.9101 64.7751 14.0032C64.7806 14.3298 65.2285 14.6929 65.5222 14.8225C69.8674 16.7532 71.0847 7.71483 69.5087 6.43928Z" fill="#6D6D6D"/>
<path d="M92.2327 13.871C91.8888 15.0133 91.9725 17.2177 91.5543 18.2086C91.1361 19.1995 85.8096 19.7852 84.7001 19.7159C75.3518 19.1319 76.4055 6.55165 82.9568 2.84362C85.7948 1.23778 91.2551 0.792521 93.1991 3.88924C95.749 7.94763 91.3573 11.2834 87.6254 11.9914C86.7705 12.1538 85.0439 12.0918 84.5477 12.2542C84.1946 12.3692 84.2262 12.7378 84.2262 13.0498C84.2262 15.5845 88.103 15.1009 89.7776 14.652C90.6436 14.4203 91.361 13.8655 92.2327 13.8728V13.871ZM84.2429 9.12464C85.6108 9.23413 88.5416 8.71223 88.8093 7.13011C89.1494 5.11734 86.6125 5.225 85.4993 6.20311C85.1183 6.53705 83.9325 8.82172 84.241 9.12464H84.2429Z" fill="#6D6D6D"/>
<path d="M40.1942 13.8685C40.3448 14.0309 39.6664 17.8575 39.5159 18.2061C39.1442 19.0656 34.3808 19.7334 33.4107 19.7207C23.4137 19.5802 24.5325 5.51264 32.0223 2.46702C34.864 1.31191 39.5977 1.06556 41.3168 4.10023C43.6827 8.27541 39.0605 11.3064 35.4011 11.9907C34.8157 12.1002 32.3996 12.2371 32.2863 12.3977C31.9294 12.8977 32.4424 14.0126 32.8457 14.425C34.4254 16.0382 38.3915 14.7207 40.1942 13.8703V13.8685ZM32.3903 9.12213C33.7545 9.19147 36.5088 8.74257 36.8155 7.16045C37.0273 6.06921 36.3006 5.58928 35.2785 5.6495C33.5073 5.75169 32.5743 7.58746 32.3922 9.12213H32.3903Z" fill="#6D6D6D"/>
<path d="M50.1744 13.5601C49.5035 12.9706 47.342 12.394 46.344 11.7535C42.7217 9.42867 43.4447 3.97976 47.316 2.3356C49.2823 1.49983 52.6127 1.37757 54.6553 1.95056C55.3243 2.13852 57.8054 3.25348 57.6382 4.05823C57.5434 4.51261 54.9582 7.3429 54.6237 7.2845C53.9286 6.06188 49.6484 4.93231 49.6559 6.84107C49.6596 8.01078 52.8023 8.72794 53.8189 9.34107C56.5212 10.967 56.9951 14.1294 55.5065 16.7663C53.568 20.1969 46.9796 20.4104 43.8517 18.5783C43.4651 18.352 42.0471 17.2845 42.0452 16.8776C42.0452 16.6896 44.2866 14.1933 44.5505 14.04C45.437 13.5217 45.6136 14.3484 46.2808 14.7334C47.1692 15.2462 49.9774 15.9414 50.5108 14.7736C50.6985 14.3611 50.494 13.8411 50.1725 13.5582L50.1744 13.5601Z" fill="#6D6D6D"/>
<path d="M108.327 13.871C107.984 15.0133 108.067 17.2177 107.649 18.2086C107.231 19.1995 101.904 19.7852 100.795 19.7159C91.4465 19.1319 92.5003 6.55165 99.0515 2.84362C101.889 1.23778 107.35 0.792521 109.294 3.88924C111.844 7.94763 107.452 11.2834 103.72 11.9914C102.865 12.1538 101.139 12.0918 100.642 12.2542C100.289 12.3692 100.321 12.7378 100.321 13.0498C100.321 15.5845 104.198 15.1009 105.872 14.652C106.738 14.4203 107.456 13.8655 108.327 13.8728V13.871ZM100.338 9.12464C101.705 9.23413 104.636 8.71223 104.904 7.13011C105.244 5.11734 102.707 5.225 101.594 6.20311C101.213 6.53705 100.027 8.82172 100.336 9.12464H100.338Z" fill="#6D6D6D"/>
</g>
<defs>
<clipPath id="clip0_6910_4696">
<rect width="110" height="25" fill="white"/>
</clipPath>
</defs>
</svg>
